<?xml version="1.0" encoding="iso-8859-1"?>
<!-- Uploaded to: SVG Repo, www.svgrepo.com, Generator: SVG Repo Mixer Tools -->
<svg height="800px" width="800px" version="1.1" id="Layer_1" xmlns="http://www.w3.org/2000/svg" xmlns:xlink="http://www.w3.org/1999/xlink" 
	 viewBox="0 0 512 512" xml:space="preserve">
<g transform="translate(1 1)">
	<g>
		<polygon style="fill:#63D3FD;" points="33.133,161.133 92.867,161.133 92.867,127 33.133,127 		"/>
		<polygon style="fill:#63D3FD;" points="152.6,67.267 220.867,67.267 220.867,33.133 152.6,33.133 		"/>
		<polygon style="fill:#63D3FD;" points="289.133,152.6 357.4,152.6 357.4,118.467 289.133,118.467 		"/>
		<polygon style="fill:#63D3FD;" points="417.133,118.467 476.867,118.467 476.867,84.333 417.133,84.333 		"/>
	</g>
	<polygon style="fill:#FFA800;" points="391.533,502.467 502.467,502.467 502.467,118.467 391.533,118.467 	"/>
	<polygon style="fill:#FFE100;" points="391.533,502.467 476.867,502.467 476.867,118.467 391.533,118.467 	"/>
	<polygon style="fill:#FFA800;" points="255,502.467 391.533,502.467 391.533,152.6 255,152.6 	"/>
	<polygon style="fill:#FFE100;" points="255,502.467 365.933,502.467 365.933,152.6 255,152.6 	"/>
	<polygon style="fill:#FFA800;" points="118.467,502.467 255,502.467 255,67.267 118.467,67.267 	"/>
	<polygon style="fill:#FFE100;" points="118.467,502.467 229.4,502.467 229.4,67.267 118.467,67.267 	"/>
	<polygon style="fill:#FFFFFF;" points="7.533,502.467 118.467,502.467 118.467,161.133 7.533,161.133 	"/>
	<polygon style="fill:#FFE100;" points="33.133,502.467 118.467,502.467 118.467,161.133 33.133,161.133 	"/>
	<path d="M41.667,476.867c-5.12,0-8.533-3.413-8.533-8.533v-17.067c0-5.12,3.413-8.533,8.533-8.533s8.533,3.413,8.533,8.533v17.067
		C50.2,473.453,46.787,476.867,41.667,476.867z M41.667,425.667c-5.12,0-8.533-3.413-8.533-8.533v-17.067
		c0-5.12,3.413-8.533,8.533-8.533s8.533,3.413,8.533,8.533v17.067C50.2,422.253,46.787,425.667,41.667,425.667z M41.667,374.467
		c-5.12,0-8.533-3.413-8.533-8.533v-17.067c0-5.12,3.413-8.533,8.533-8.533s8.533,3.413,8.533,8.533v17.067
		C50.2,371.053,46.787,374.467,41.667,374.467z M41.667,323.267c-5.12,0-8.533-3.413-8.533-8.533v-17.067
		c0-5.12,3.413-8.533,8.533-8.533s8.533,3.413,8.533,8.533v17.067C50.2,319.853,46.787,323.267,41.667,323.267z M41.667,272.067
		c-5.12,0-8.533-3.413-8.533-8.533v-17.067c0-5.12,3.413-8.533,8.533-8.533s8.533,3.413,8.533,8.533v17.067
		C50.2,268.653,46.787,272.067,41.667,272.067z M41.667,220.867c-5.12,0-8.533-3.413-8.533-8.533v-17.067
		c0-5.12,3.413-8.533,8.533-8.533s8.533,3.413,8.533,8.533v17.067C50.2,217.453,46.787,220.867,41.667,220.867z"/>
	<path d="M84.333,476.867c-5.12,0-8.533-3.413-8.533-8.533v-17.067c0-5.12,3.413-8.533,8.533-8.533s8.533,3.413,8.533,8.533v17.067
		C92.867,473.453,89.453,476.867,84.333,476.867z M84.333,425.667c-5.12,0-8.533-3.413-8.533-8.533v-17.067
		c0-5.12,3.413-8.533,8.533-8.533s8.533,3.413,8.533,8.533v17.067C92.867,422.253,89.453,425.667,84.333,425.667z M84.333,374.467
		c-5.12,0-8.533-3.413-8.533-8.533v-17.067c0-5.12,3.413-8.533,8.533-8.533s8.533,3.413,8.533,8.533v17.067
		C92.867,371.053,89.453,374.467,84.333,374.467z M84.333,323.267c-5.12,0-8.533-3.413-8.533-8.533v-17.067
		c0-5.12,3.413-8.533,8.533-8.533s8.533,3.413,8.533,8.533v17.067C92.867,319.853,89.453,323.267,84.333,323.267z M84.333,272.067
		c-5.12,0-8.533-3.413-8.533-8.533v-17.067c0-5.12,3.413-8.533,8.533-8.533s8.533,3.413,8.533,8.533v17.067
		C92.867,268.653,89.453,272.067,84.333,272.067z M84.333,220.867c-5.12,0-8.533-3.413-8.533-8.533v-17.067
		c0-5.12,3.413-8.533,8.533-8.533s8.533,3.413,8.533,8.533v17.067C92.867,217.453,89.453,220.867,84.333,220.867z"/>
	<path d="M118.467,511H7.533C2.413,511-1,507.587-1,502.467V161.133c0-5.12,3.413-8.533,8.533-8.533h110.933
		c5.12,0,8.533,3.413,8.533,8.533v341.333C127,507.587,123.587,511,118.467,511z M16.067,493.933h93.867V169.667H16.067V493.933z"/>
	<path d="M92.867,169.667H33.133c-5.12,0-8.533-3.413-8.533-8.533V127c0-5.12,3.413-8.533,8.533-8.533h59.733
		c5.12,0,8.533,3.413,8.533,8.533v34.133C101.4,166.253,97.987,169.667,92.867,169.667z M41.667,152.6h42.667v-17.067H41.667V152.6z
		"/>
	<path d="M50.2,135.533c-5.12,0-8.533-3.413-8.533-8.533V92.867c0-5.12,3.413-8.533,8.533-8.533s8.533,3.413,8.533,8.533V127
		C58.733,132.12,55.32,135.533,50.2,135.533z"/>
	<path d="M75.8,135.533c-5.12,0-8.533-3.413-8.533-8.533V92.867c0-5.12,3.413-8.533,8.533-8.533c5.12,0,8.533,3.413,8.533,8.533V127
		C84.333,132.12,80.92,135.533,75.8,135.533z"/>
	<path d="M152.6,476.867c-5.12,0-8.533-3.413-8.533-8.533V459.8c0-5.12,3.413-8.533,8.533-8.533c5.12,0,8.533,3.413,8.533,8.533
		v8.533C161.133,473.453,157.72,476.867,152.6,476.867z M152.6,434.2c-5.12,0-8.533-3.413-8.533-8.533V408.6
		c0-5.12,3.413-8.533,8.533-8.533c5.12,0,8.533,3.413,8.533,8.533v17.067C161.133,430.787,157.72,434.2,152.6,434.2z M152.6,383
		c-5.12,0-8.533-3.413-8.533-8.533V357.4c0-5.12,3.413-8.533,8.533-8.533c5.12,0,8.533,3.413,8.533,8.533v17.067
		C161.133,379.587,157.72,383,152.6,383z M152.6,331.8c-5.12,0-8.533-3.413-8.533-8.533V306.2c0-5.12,3.413-8.533,8.533-8.533
		c5.12,0,8.533,3.413,8.533,8.533v17.067C161.133,328.387,157.72,331.8,152.6,331.8z M152.6,280.6c-5.12,0-8.533-3.413-8.533-8.533
		V255c0-5.12,3.413-8.533,8.533-8.533c5.12,0,8.533,3.413,8.533,8.533v17.067C161.133,277.187,157.72,280.6,152.6,280.6z
		 M152.6,229.4c-5.12,0-8.533-3.413-8.533-8.533V203.8c0-5.12,3.413-8.533,8.533-8.533c5.12,0,8.533,3.413,8.533,8.533v17.067
		C161.133,225.987,157.72,229.4,152.6,229.4z M152.6,178.2c-5.12,0-8.533-3.413-8.533-8.533V152.6c0-5.12,3.413-8.533,8.533-8.533
		c5.12,0,8.533,3.413,8.533,8.533v17.067C161.133,174.787,157.72,178.2,152.6,178.2z M152.6,127c-5.12,0-8.533-3.413-8.533-8.533
		V101.4c0-5.12,3.413-8.533,8.533-8.533c5.12,0,8.533,3.413,8.533,8.533v17.067C161.133,123.587,157.72,127,152.6,127z"/>
	<path d="M186.733,476.867c-5.12,0-8.533-3.413-8.533-8.533V459.8c0-5.12,3.413-8.533,8.533-8.533c5.12,0,8.533,3.413,8.533,8.533
		v8.533C195.267,473.453,191.853,476.867,186.733,476.867z M186.733,434.2c-5.12,0-8.533-3.413-8.533-8.533V408.6
		c0-5.12,3.413-8.533,8.533-8.533c5.12,0,8.533,3.413,8.533,8.533v17.067C195.267,430.787,191.853,434.2,186.733,434.2z
		 M186.733,383c-5.12,0-8.533-3.413-8.533-8.533V357.4c0-5.12,3.413-8.533,8.533-8.533c5.12,0,8.533,3.413,8.533,8.533v17.067
		C195.267,379.587,191.853,383,186.733,383z M186.733,331.8c-5.12,0-8.533-3.413-8.533-8.533V306.2c0-5.12,3.413-8.533,8.533-8.533
		c5.12,0,8.533,3.413,8.533,8.533v17.067C195.267,328.387,191.853,331.8,186.733,331.8z M186.733,280.6
		c-5.12,0-8.533-3.413-8.533-8.533V255c0-5.12,3.413-8.533,8.533-8.533c5.12,0,8.533,3.413,8.533,8.533v17.067
		C195.267,277.187,191.853,280.6,186.733,280.6z M186.733,229.4c-5.12,0-8.533-3.413-8.533-8.533V203.8
		c0-5.12,3.413-8.533,8.533-8.533c5.12,0,8.533,3.413,8.533,8.533v17.067C195.267,225.987,191.853,229.4,186.733,229.4z
		 M186.733,178.2c-5.12,0-8.533-3.413-8.533-8.533V152.6c0-5.12,3.413-8.533,8.533-8.533c5.12,0,8.533,3.413,8.533,8.533v17.067
		C195.267,174.787,191.853,178.2,186.733,178.2z M186.733,127c-5.12,0-8.533-3.413-8.533-8.533V101.4
		c0-5.12,3.413-8.533,8.533-8.533c5.12,0,8.533,3.413,8.533,8.533v17.067C195.267,123.587,191.853,127,186.733,127z"/>
	<path d="M220.867,476.867c-5.12,0-8.533-3.413-8.533-8.533V459.8c0-5.12,3.413-8.533,8.533-8.533c5.12,0,8.533,3.413,8.533,8.533
		v8.533C229.4,473.453,225.987,476.867,220.867,476.867z M220.867,434.2c-5.12,0-8.533-3.413-8.533-8.533V408.6
		c0-5.12,3.413-8.533,8.533-8.533c5.12,0,8.533,3.413,8.533,8.533v17.067C229.4,430.787,225.987,434.2,220.867,434.2z M220.867,383
		c-5.12,0-8.533-3.413-8.533-8.533V357.4c0-5.12,3.413-8.533,8.533-8.533c5.12,0,8.533,3.413,8.533,8.533v17.067
		C229.4,379.587,225.987,383,220.867,383z M220.867,331.8c-5.12,0-8.533-3.413-8.533-8.533V306.2c0-5.12,3.413-8.533,8.533-8.533
		c5.12,0,8.533,3.413,8.533,8.533v17.067C229.4,328.387,225.987,331.8,220.867,331.8z M220.867,280.6
		c-5.12,0-8.533-3.413-8.533-8.533V255c0-5.12,3.413-8.533,8.533-8.533c5.12,0,8.533,3.413,8.533,8.533v17.067
		C229.4,277.187,225.987,280.6,220.867,280.6z M220.867,229.4c-5.12,0-8.533-3.413-8.533-8.533V203.8
		c0-5.12,3.413-8.533,8.533-8.533c5.12,0,8.533,3.413,8.533,8.533v17.067C229.4,225.987,225.987,229.4,220.867,229.4z
		 M220.867,178.2c-5.12,0-8.533-3.413-8.533-8.533V152.6c0-5.12,3.413-8.533,8.533-8.533c5.12,0,8.533,3.413,8.533,8.533v17.067
		C229.4,174.787,225.987,178.2,220.867,178.2z M220.867,127c-5.12,0-8.533-3.413-8.533-8.533V101.4c0-5.12,3.413-8.533,8.533-8.533
		c5.12,0,8.533,3.413,8.533,8.533v17.067C229.4,123.587,225.987,127,220.867,127z"/>
	<path d="M255,511H118.467c-5.12,0-8.533-3.413-8.533-8.533v-435.2c0-5.12,3.413-8.533,8.533-8.533H255
		c5.12,0,8.533,3.413,8.533,8.533v435.2C263.533,507.587,260.12,511,255,511z M127,493.933h119.467V75.8H127V493.933z"/>
	<path d="M220.867,75.8H152.6c-5.12,0-8.533-3.413-8.533-8.533V33.133c0-5.12,3.413-8.533,8.533-8.533h68.267
		c5.12,0,8.533,3.413,8.533,8.533v34.133C229.4,72.387,225.987,75.8,220.867,75.8z M161.133,58.733h51.2V41.667h-51.2V58.733z"/>
	<path d="M186.733,41.667c-5.12,0-8.533-3.413-8.533-8.533v-25.6c0-5.12,3.413-8.533,8.533-8.533c5.12,0,8.533,3.413,8.533,8.533
		v25.6C195.267,38.253,191.853,41.667,186.733,41.667z"/>
	<path d="M289.133,468.333c-5.12,0-8.533-3.413-8.533-8.533v-17.067c0-5.12,3.413-8.533,8.533-8.533c5.12,0,8.533,3.413,8.533,8.533
		V459.8C297.667,464.92,294.253,468.333,289.133,468.333z M289.133,417.133c-5.12,0-8.533-3.413-8.533-8.533v-17.067
		c0-5.12,3.413-8.533,8.533-8.533c5.12,0,8.533,3.413,8.533,8.533V408.6C297.667,413.72,294.253,417.133,289.133,417.133z
		 M289.133,365.933c-5.12,0-8.533-3.413-8.533-8.533v-17.067c0-5.12,3.413-8.533,8.533-8.533c5.12,0,8.533,3.413,8.533,8.533V357.4
		C297.667,362.52,294.253,365.933,289.133,365.933z M289.133,314.733c-5.12,0-8.533-3.413-8.533-8.533v-17.067
		c0-5.12,3.413-8.533,8.533-8.533c5.12,0,8.533,3.413,8.533,8.533V306.2C297.667,311.32,294.253,314.733,289.133,314.733z
		 M289.133,263.533c-5.12,0-8.533-3.413-8.533-8.533v-17.067c0-5.12,3.413-8.533,8.533-8.533c5.12,0,8.533,3.413,8.533,8.533V255
		C297.667,260.12,294.253,263.533,289.133,263.533z M289.133,212.333c-5.12,0-8.533-3.413-8.533-8.533v-17.067
		c0-5.12,3.413-8.533,8.533-8.533c5.12,0,8.533,3.413,8.533,8.533V203.8C297.667,208.92,294.253,212.333,289.133,212.333z"/>
	<path d="M323.267,468.333c-5.12,0-8.533-3.413-8.533-8.533v-17.067c0-5.12,3.413-8.533,8.533-8.533c5.12,0,8.533,3.413,8.533,8.533
		V459.8C331.8,464.92,328.387,468.333,323.267,468.333z M323.267,417.133c-5.12,0-8.533-3.413-8.533-8.533v-17.067
		c0-5.12,3.413-8.533,8.533-8.533c5.12,0,8.533,3.413,8.533,8.533V408.6C331.8,413.72,328.387,417.133,323.267,417.133z
		 M323.267,365.933c-5.12,0-8.533-3.413-8.533-8.533v-17.067c0-5.12,3.413-8.533,8.533-8.533c5.12,0,8.533,3.413,8.533,8.533V357.4
		C331.8,362.52,328.387,365.933,323.267,365.933z M323.267,314.733c-5.12,0-8.533-3.413-8.533-8.533v-17.067
		c0-5.12,3.413-8.533,8.533-8.533c5.12,0,8.533,3.413,8.533,8.533V306.2C331.8,311.32,328.387,314.733,323.267,314.733z
		 M323.267,263.533c-5.12,0-8.533-3.413-8.533-8.533v-17.067c0-5.12,3.413-8.533,8.533-8.533c5.12,0,8.533,3.413,8.533,8.533V255
		C331.8,260.12,328.387,263.533,323.267,263.533z M323.267,212.333c-5.12,0-8.533-3.413-8.533-8.533v-17.067
		c0-5.12,3.413-8.533,8.533-8.533c5.12,0,8.533,3.413,8.533,8.533V203.8C331.8,208.92,328.387,212.333,323.267,212.333z"/>
	<path d="M357.4,468.333c-5.12,0-8.533-3.413-8.533-8.533v-17.067c0-5.12,3.413-8.533,8.533-8.533s8.533,3.413,8.533,8.533V459.8
		C365.933,464.92,362.52,468.333,357.4,468.333z M357.4,417.133c-5.12,0-8.533-3.413-8.533-8.533v-17.067
		c0-5.12,3.413-8.533,8.533-8.533s8.533,3.413,8.533,8.533V408.6C365.933,413.72,362.52,417.133,357.4,417.133z M357.4,365.933
		c-5.12,0-8.533-3.413-8.533-8.533v-17.067c0-5.12,3.413-8.533,8.533-8.533s8.533,3.413,8.533,8.533V357.4
		C365.933,362.52,362.52,365.933,357.4,365.933z M357.4,314.733c-5.12,0-8.533-3.413-8.533-8.533v-17.067
		c0-5.12,3.413-8.533,8.533-8.533s8.533,3.413,8.533,8.533V306.2C365.933,311.32,362.52,314.733,357.4,314.733z M357.4,263.533
		c-5.12,0-8.533-3.413-8.533-8.533v-17.067c0-5.12,3.413-8.533,8.533-8.533s8.533,3.413,8.533,8.533V255
		C365.933,260.12,362.52,263.533,357.4,263.533z M357.4,212.333c-5.12,0-8.533-3.413-8.533-8.533v-17.067
		c0-5.12,3.413-8.533,8.533-8.533s8.533,3.413,8.533,8.533V203.8C365.933,208.92,362.52,212.333,357.4,212.333z"/>
	<path d="M391.533,511H255c-5.12,0-8.533-3.413-8.533-8.533V152.6c0-5.12,3.413-8.533,8.533-8.533h136.533
		c5.12,0,8.533,3.413,8.533,8.533v349.867C400.067,507.587,396.653,511,391.533,511z M263.533,493.933H383v-332.8H263.533V493.933z"
		/>
	<path d="M357.4,161.133h-68.267c-5.12,0-8.533-3.413-8.533-8.533v-34.133c0-5.12,3.413-8.533,8.533-8.533H357.4
		c5.12,0,8.533,3.413,8.533,8.533V152.6C365.933,157.72,362.52,161.133,357.4,161.133z M297.667,144.067h51.2V127h-51.2V144.067z"/>
	<path d="M323.267,127c-5.12,0-8.533-3.413-8.533-8.533V84.333c0-5.12,3.413-8.533,8.533-8.533c5.12,0,8.533,3.413,8.533,8.533
		v34.133C331.8,123.587,328.387,127,323.267,127z"/>
	<path d="M425.667,476.867c-5.12,0-8.533-3.413-8.533-8.533V459.8c0-5.12,3.413-8.533,8.533-8.533s8.533,3.413,8.533,8.533v8.533
		C434.2,473.453,430.787,476.867,425.667,476.867z M425.667,434.2c-5.12,0-8.533-3.413-8.533-8.533V408.6
		c0-5.12,3.413-8.533,8.533-8.533s8.533,3.413,8.533,8.533v17.067C434.2,430.787,430.787,434.2,425.667,434.2z M425.667,383
		c-5.12,0-8.533-3.413-8.533-8.533V357.4c0-5.12,3.413-8.533,8.533-8.533s8.533,3.413,8.533,8.533v17.067
		C434.2,379.587,430.787,383,425.667,383z M425.667,331.8c-5.12,0-8.533-3.413-8.533-8.533V306.2c0-5.12,3.413-8.533,8.533-8.533
		s8.533,3.413,8.533,8.533v17.067C434.2,328.387,430.787,331.8,425.667,331.8z M425.667,280.6c-5.12,0-8.533-3.413-8.533-8.533V255
		c0-5.12,3.413-8.533,8.533-8.533S434.2,249.88,434.2,255v17.067C434.2,277.187,430.787,280.6,425.667,280.6z M425.667,229.4
		c-5.12,0-8.533-3.413-8.533-8.533V203.8c0-5.12,3.413-8.533,8.533-8.533s8.533,3.413,8.533,8.533v17.067
		C434.2,225.987,430.787,229.4,425.667,229.4z M425.667,178.2c-5.12,0-8.533-3.413-8.533-8.533V152.6
		c0-5.12,3.413-8.533,8.533-8.533s8.533,3.413,8.533,8.533v17.067C434.2,174.787,430.787,178.2,425.667,178.2z"/>
	<path d="M468.333,476.867c-5.12,0-8.533-3.413-8.533-8.533V459.8c0-5.12,3.413-8.533,8.533-8.533c5.12,0,8.533,3.413,8.533,8.533
		v8.533C476.867,473.453,473.453,476.867,468.333,476.867z M468.333,434.2c-5.12,0-8.533-3.413-8.533-8.533V408.6
		c0-5.12,3.413-8.533,8.533-8.533c5.12,0,8.533,3.413,8.533,8.533v17.067C476.867,430.787,473.453,434.2,468.333,434.2z
		 M468.333,383c-5.12,0-8.533-3.413-8.533-8.533V357.4c0-5.12,3.413-8.533,8.533-8.533c5.12,0,8.533,3.413,8.533,8.533v17.067
		C476.867,379.587,473.453,383,468.333,383z M468.333,331.8c-5.12,0-8.533-3.413-8.533-8.533V306.2c0-5.12,3.413-8.533,8.533-8.533
		c5.12,0,8.533,3.413,8.533,8.533v17.067C476.867,328.387,473.453,331.8,468.333,331.8z M468.333,280.6
		c-5.12,0-8.533-3.413-8.533-8.533V255c0-5.12,3.413-8.533,8.533-8.533c5.12,0,8.533,3.413,8.533,8.533v17.067
		C476.867,277.187,473.453,280.6,468.333,280.6z M468.333,229.4c-5.12,0-8.533-3.413-8.533-8.533V203.8
		c0-5.12,3.413-8.533,8.533-8.533c5.12,0,8.533,3.413,8.533,8.533v17.067C476.867,225.987,473.453,229.4,468.333,229.4z
		 M468.333,178.2c-5.12,0-8.533-3.413-8.533-8.533V152.6c0-5.12,3.413-8.533,8.533-8.533c5.12,0,8.533,3.413,8.533,8.533v17.067
		C476.867,174.787,473.453,178.2,468.333,178.2z"/>
	<path d="M502.467,511H391.533c-5.12,0-8.533-3.413-8.533-8.533v-384c0-5.12,3.413-8.533,8.533-8.533h110.933
		c5.12,0,8.533,3.413,8.533,8.533v384C511,507.587,507.587,511,502.467,511z M400.067,493.933h93.867V127h-93.867V493.933z"/>
	<path d="M476.867,127h-59.733c-5.12,0-8.533-3.413-8.533-8.533V84.333c0-5.12,3.413-8.533,8.533-8.533h59.733
		c5.12,0,8.533,3.413,8.533,8.533v34.133C485.4,123.587,481.987,127,476.867,127z M425.667,109.933h42.667V92.867h-42.667V109.933z"
		/>
	<path d="M434.2,92.867c-5.12,0-8.533-3.413-8.533-8.533V50.2c0-5.12,3.413-8.533,8.533-8.533c5.12,0,8.533,3.413,8.533,8.533
		v34.133C442.733,89.453,439.32,92.867,434.2,92.867z"/>
	<path d="M459.8,92.867c-5.12,0-8.533-3.413-8.533-8.533V50.2c0-5.12,3.413-8.533,8.533-8.533s8.533,3.413,8.533,8.533v34.133
		C468.333,89.453,464.92,92.867,459.8,92.867z"/>
</g>
</svg>